<?xml version="1.0" encoding="utf-8"?>
<!-- Generator: Adobe Illustrator 24.3.0, SVG Export Plug-In . SVG Version: 6.00 Build 0)  -->
<svg version="1.1" id="圖層_1" xmlns="http://www.w3.org/2000/svg" xmlns:xlink="http://www.w3.org/1999/xlink" x="0px" y="0px"
	 viewBox="0 0 156.6 41" style="enable-background:new 0 0 156.6 41;" xml:space="preserve">
<style type="text/css">
	.st0{fill-rule:evenodd;clip-rule:evenodd;fill:#8169F1;}
</style>
<g>
	<path class="st0" d="M16.9,40.3c3.6-7.3,8.5-13.5,14.4-18.8C26.4,16.9,23,10.7,23,4.4c1.2-0.2,2.8-0.6,2.8-1.7c0-0.8-1-1.1-1.6-1.2
		c-2.3-0.3-5.1-0.5-8-0.5s-5.7,0.1-8,0.5C7.6,1.6,6.6,1.9,6.6,2.7c0,1.1,1.6,1.5,2.8,1.7c0,6.3-3.4,12.6-8.3,17.1
		c5.9,5.4,10.8,11.5,14.4,18.8c-0.2-3.1-0.3-6.3,0-9.4v-3.7c-0.7,0-2,0.1-4.1,0.1c-1-4.4-0.6-8.9,1.2-13.1h8.8c-2.2,2.9-3.5,6-4,9.4
		l5.2,0.1C19.1,28.7,17.1,34.4,16.9,40.3z"/>
</g>
<g>
	<g>
		<path d="M48.5,20.1c0,1.9-0.3,3.5-0.8,4.8c-0.5,1.3-1.2,2.4-2.1,3.2l2.9,2.7l-1.5,1.6l-3.5-3.2c-0.5,0.2-1.1,0.2-1.7,0.2
			c-1.3,0-2.5-0.4-3.5-1.1c-1-0.8-1.8-1.8-2.3-3.2c-0.6-1.4-0.8-3-0.9-4.8v-1.4c0-1.9,0.3-3.5,0.8-4.9c0.6-1.4,1.3-2.5,2.3-3.3
			c1-0.8,2.2-1.1,3.5-1.1c1.3,0,2.5,0.4,3.5,1.1c1,0.8,1.8,1.8,2.3,3.3c0.5,1.4,0.8,3.1,0.8,5L48.5,20.1L48.5,20.1z M46.4,18.9
			c0-2.3-0.4-4-1.2-5.3c-0.8-1.2-1.9-1.9-3.3-1.9c-1.4,0-2.4,0.6-3.2,1.8c-0.8,1.2-1.2,2.9-1.2,5.1v1.4c0,2.2,0.4,4,1.2,5.2
			c0.8,1.3,1.9,1.9,3.3,1.9s2.5-0.6,3.3-1.8s1.2-2.9,1.2-5.2L46.4,18.9L46.4,18.9z"/>
	</g>
	<g>
		<path d="M59.1,27.7c-0.8,1.1-2,1.7-3.6,1.7c-1.3,0-2.3-0.4-3-1.3c-0.7-0.9-1-2.2-1-4v-9.3h2.1v9.3c0,2.2,0.8,3.3,2.3,3.3
			c1.6,0,2.7-0.7,3.2-2.1V14.8h2.1v14.4h-2L59.1,27.7z"/>
	</g>
	<g>
		<path d="M64.4,11c0-0.4,0.1-0.7,0.3-1c0.2-0.3,0.5-0.4,0.9-0.4c0.4,0,0.7,0.1,0.9,0.4s0.3,0.6,0.3,1c0,0.4-0.1,0.7-0.3,1
			c-0.2,0.3-0.5,0.4-0.9,0.4s-0.7-0.1-0.9-0.4C64.5,11.7,64.4,11.4,64.4,11z M66.6,29.2h-2.1V14.8h2.1
			C66.6,14.8,66.6,29.2,66.6,29.2z"/>
	</g>
	<g>
		<path d="M74.9,27.4c0.7,0,1.4-0.3,2-0.8c0.6-0.5,0.9-1.2,0.9-2h2c0,0.8-0.3,1.6-0.7,2.4s-1,1.3-1.8,1.8c-0.7,0.4-1.5,0.7-2.4,0.7
			c-1.7,0-3-0.7-4-2c-1-1.3-1.5-3.1-1.5-5.4v-0.4c0-1.4,0.2-2.6,0.7-3.7c0.4-1.1,1.1-1.9,1.9-2.5c0.8-0.6,1.8-0.9,2.9-0.9
			c1.4,0,2.5,0.5,3.4,1.4c0.9,1,1.4,2.2,1.5,3.8h-2c-0.1-0.9-0.4-1.7-0.9-2.3c-0.5-0.6-1.2-0.9-2-0.9c-1.1,0-1.9,0.4-2.5,1.3
			c-0.6,0.9-0.9,2.2-0.9,3.9v0.5c0,1.7,0.3,2.9,0.9,3.8C73,27,73.8,27.4,74.9,27.4z"/>
	</g>
	<g>
		<path d="M85.6,22.5l-1.3,1.6v5h-2.1V8.8h2.1v12.3l1.1-1.6l3.8-4.7h2.6l-4.8,6l5.3,8.4h-2.5L85.6,22.5z"/>
	</g>
	<g>
		<path d="M96.2,29.2h-2.1V8.8h2.1V29.2z"/>
	</g>
	<g>
		<path d="M103.6,25.6l2.9-10.8h2.2l-4.9,16.6c-0.8,2.4-2,3.6-3.6,3.6l-0.4,0l-0.8-0.2v-2l0.6,0c0.7,0,1.3-0.2,1.7-0.5
			c0.4-0.3,0.7-0.9,1-1.8l0.5-1.5l-4.4-14.2h2.3L103.6,25.6z"/>
	</g>
</g>
<g>
	<g>
		<path d="M120.2,24.1c0-0.8-0.2-1.3-0.7-1.7c-0.5-0.4-1.3-0.8-2.4-1.3c-1.2-0.4-2.1-0.9-2.8-1.3c-1.9-1.2-2.8-2.8-2.8-4.8
			c0-1,0.3-2,0.8-2.8c0.5-0.8,1.2-1.5,2.2-1.9c0.9-0.5,2-0.7,3.2-0.7c1.2,0,2.2,0.3,3.1,0.8c0.9,0.5,1.6,1.2,2.1,2.1
			c0.5,0.9,0.8,2,0.8,3.1h-3.4c0-0.9-0.2-1.6-0.7-2.1c-0.5-0.5-1.1-0.7-2-0.7c-0.8,0-1.5,0.2-1.9,0.6s-0.7,1-0.7,1.6
			c0,0.6,0.3,1.2,0.8,1.6s1.3,0.8,2.4,1.2c1.9,0.7,3.3,1.5,4.2,2.5c0.9,1,1.3,2.3,1.3,3.8c0,1.7-0.5,3-1.6,3.9
			c-1.1,0.9-2.5,1.4-4.4,1.4c-1.3,0-2.4-0.3-3.5-0.8c-1-0.5-1.8-1.3-2.4-2.2c-0.6-0.9-0.8-2.1-0.8-3.3h3.4c0,2.1,1.1,3.2,3.3,3.2
			c0.8,0,1.4-0.2,1.9-0.6C120,25.3,120.2,24.8,120.2,24.1z"/>
	</g>
	<g>
		<path d="M125.7,11.1c0-0.6,0.2-1,0.5-1.4c0.3-0.4,0.8-0.6,1.3-0.6c0.6,0,1,0.2,1.3,0.6s0.5,0.8,0.5,1.4c0,0.6-0.2,1.1-0.5,1.4
			s-0.8,0.6-1.3,0.6c-0.6,0-1-0.2-1.3-0.6C125.8,12.1,125.7,11.7,125.7,11.1z M129.2,29.2h-3.3V14.8h3.3V29.2z"/>
	</g>
	<g>
		<path d="M131.4,21.9c0-2.2,0.4-4,1.3-5.3c0.9-1.3,2.1-2,3.6-2c1.3,0,2.4,0.5,3.1,1.6l0.1-1.4h3v13.9c0,1.3-0.2,2.4-0.7,3.3
			c-0.5,0.9-1.2,1.6-2.1,2.1c-0.9,0.5-1.9,0.7-3.1,0.7c-0.9,0-1.8-0.2-2.6-0.6c-0.9-0.4-1.5-1-1.9-1.6l1.4-2.3
			c0.8,1.1,1.8,1.6,3,1.6c0.9,0,1.5-0.3,2-0.8c0.5-0.5,0.7-1.3,0.7-2.3v-0.8c-0.8,1-1.7,1.5-3,1.5c-1.5,0-2.7-0.7-3.6-2
			c-0.9-1.3-1.4-3.1-1.4-5.4L131.4,21.9L131.4,21.9z M134.7,22.2c0,1.3,0.2,2.3,0.7,3.1c0.4,0.7,1.1,1.1,1.8,1.1
			c1,0,1.7-0.4,2.1-1.3V19c-0.4-0.9-1.1-1.3-2.1-1.3c-0.8,0-1.4,0.4-1.9,1.1C134.9,19.5,134.7,20.7,134.7,22.2z"/>
	</g>
	<g>
		<path d="M148.1,14.8l0.1,1.7c0.9-1.3,2-1.9,3.5-1.9c1.3,0,2.3,0.4,2.9,1.3c0.6,0.9,1,2.2,1,4v9.3h-3.3V20c0-0.8-0.2-1.4-0.5-1.8
			c-0.3-0.4-0.8-0.5-1.5-0.5c-0.9,0-1.6,0.5-2.1,1.4v10.1h-3.3V14.8H148.1z"/>
	</g>
</g>
</svg>
